<svg id="Ebene_1" data-name="Ebene 1" xmlns="http://www.w3.org/2000/svg" viewBox="0 0 656.61505 322.46965"><defs><style>.cls-1{fill:#a7b9bf;}.cls-2{fill:#004359;}</style></defs><title>logo_protent</title><polygon class="cls-1" points="316.047 249.746 316.047 162.7 287.49 162.7 287.49 145.054 364.657 145.054 364.657 162.7 335.662 162.7 335.662 249.746 316.047 249.746"/><polygon class="cls-1" points="382.013 249.746 382.013 145.054 456.643 145.054 456.643 162.552 401.338 162.552 401.338 187.166 452.034 187.166 452.034 204.079 401.338 204.079 401.338 232.105 460.35 232.105 460.35 249.746 382.013 249.746"/><polygon class="cls-1" points="545.754 249.746 499.814 176.344 501.002 249.746 481.833 249.746 481.833 145.054 499.52 145.054 546.053 218.898 543.677 145.054 563.002 145.054 563.002 249.746 545.754 249.746"/><polygon class="cls-1" points="607.98 249.746 607.98 162.7 579.436 162.7 579.436 145.054 656.594 145.054 656.594 162.7 627.599 162.7 627.599 249.746 607.98 249.746"/><path class="cls-1" d="M642.68025,179.76274h3.3138a6.12145,6.12145,0,0,0,1.523-.12512,1.91157,1.91157,0,0,0,1.5587-2.01421,2.22663,2.22663,0,0,0-.74132-1.75061,3.56551,3.56551,0,0,0-2.42964-.5272h-3.22453Zm0,1.37552v5.30607H641.05v-12.4786h4.64489c1.73739.01772,2.76016.01772,3.73374.75918a3.4305,3.4305,0,0,1,1.31309,2.88079,3.23628,3.23628,0,0,1-2.95671,3.43007l3.506,5.40856h-1.983l-3.40322-5.30607Z"/><path class="cls-1" d="M635.89194,180.55626a9.58449,9.58449,0,1,1,9.58445,9.55774,9.58376,9.58376,0,0,1-9.58445-9.55774m-1.5542,0a11.13869,11.13869,0,1,0,11.13865-11.1118,11.13733,11.13733,0,0,0-11.13865,11.1118"/><path class="cls-2" d="M19.87724,198.1482H34.00831a37.2022,37.2022,0,0,0,4.16253-.1562c10.10252-.29031,14.56872-3.55955,17.09213-7.70872A22.00811,22.00811,0,0,0,58.09006,179.31a20.61784,20.61784,0,0,0-2.38494-9.79c-4.45727-7.70872-13.22442-7.70872-20.808-7.70872H19.87724ZM35.643,145.054a63.18558,63.18558,0,0,1,7.5836,0c4.60461.30831,17.8246,1.18824,27.19915,12.1662,7.5836,8.74922,7.88727,18.52558,7.88727,22.68811,0,16.31074-8.48576,24.75629-13.97473,28.32919-9.07531,5.77466-18.88752,6.06961-29.13751,5.91777H19.87724V249.7464H.25726V145.054Z"/><path class="cls-2" d="M113.00514,194.584h6.98069c11.44689-.15184,18.58384,0,23.34929-2.52778,2.96107-1.62576,7.86492-5.48,7.86492-13.93916a14.81519,14.81519,0,0,0-6.52062-13.05023c-3.43-2.21974-7.44512-3.11277-15.77461-3.11277H113.00514Zm23.49226-49.53029c4.752.30831,18.87852.44678,28.23972,12.75119,6.10082,8.00776,6.39113,17.05629,6.39113,20.473a36.78755,36.78755,0,0,1-1.92943,11.71478,28.94,28.94,0,0,1-18.73561,17.0432L173.808,249.74613H151.35637l-20.665-38.85165H113.00514v38.85165H93.52806V145.05372Z"/><path class="cls-2" d="M257.78153,174.12c-5.48448-8.89669-13.814-13.80068-24.37656-13.80068a29.98258,29.98258,0,0,0-13.38075,3.12176c-7.43177,4.00633-16.64549,13.79169-16.64549,33.367,0,4.0017.14734,23.278,14.86789,32.92052a28.37767,28.37767,0,0,0,15.462,4.45284,28.9326,28.9326,0,0,0,12.03645-2.52341c7.73094-3.56855,17.98993-12.45624,18.2891-32.17906.30367-8.602-1.48728-17.79775-6.25266-25.359m11.46032,63.31707a47.12709,47.12709,0,0,1-17.84259,12.01409,53.10885,53.10885,0,0,1-18.2846,2.96556c-14.868,0-26.17188-4.89472-35.98422-16.172-9.8122-11.11644-13.9791-24.162-13.9791-38.69954a68.97454,68.97454,0,0,1,3.13962-20.31244c6.97176-20.90179,24.81421-34.84531,47.27034-34.84531a48.59917,48.59917,0,0,1,37.16319,16.60105c5.50247,6.2348,13.08607,18.39173,13.08607,38.40486-.15633,6.53847-.746,25.06868-14.56872,40.0437"/><path class="cls-2" d="M655.38919,127.26824a.894.894,0,0,0,1.0405-.46423.846.846,0,0,0-.40194-1.15689c-16.20784-8.19558-69.1055-35.58214-109.40845-63.63437A569.87548,569.87548,0,0,1,474.21771,1.35729C472.52939-.40695,471.73-.465,470.015,1.26352a567.99864,567.99864,0,0,1-72.49536,60.74923C357.087,90.15412,303.984,117.599,287.95919,125.69183a.84766.84766,0,0,0-.38409,1.16562.90484.90484,0,0,0,1.04949.45551c1.00942-.13848,2.193-.36173,3.60426-.603,27.58324-4.59568,95.96527-19.64676,104.73248-25.1,8.55718-5.3415,69.94959-76.28252,72.6964-78.81493a3.48824,3.48824,0,0,1,4.4617-.19654c4.6671,2.93422,11.20571,9.24071,14.24719,13.09929,1.974,2.51006,10.2275,16.71718,12.023,19.75416,2.66639,4.49292,7.64616,12.49631,9.33435,14.10872,6.57868,6.2885,88.91759,45.89006,136.12088,55.95264,3.21117.68312,6.71716,1.29946,9.54438,1.755"/><path class="cls-2" d="M16.60535,304.33225a7.02,7.02,0,0,0-.24568-1.46929c-.49128-1.74625-2.06784-3.77381-6.1321-3.77381-1.57655,0-3.71139.35274-4.80115,1.64348a3.487,3.487,0,0,0-.83966,2.23746,3.10843,3.10843,0,0,0,.594,1.81794c.94686,1.29074,2.87629,1.67483,4.31437,2.02756l2.72888.661c.63419.17419,1.29967.317,1.92936.49122.77267.17419,3.78287.83959,5.29244,3.354a6.43887,6.43887,0,0,1,.91115,3.42571,6.92011,6.92011,0,0,1-2.06784,5.06918c-1.36666,1.32645-3.60875,2.6529-7.81585,2.6529a13.16873,13.16873,0,0,1-6.76186-1.71517,7.6712,7.6712,0,0,1-1.99642-1.849A9.45377,9.45377,0,0,1,0,313.94369l3.5372-.45551a6.61439,6.61439,0,0,0,1.67932,4.43921,7.20567,7.20567,0,0,0,5.43085,1.95642,8.3052,8.3052,0,0,0,2.27781-.28159,4.76527,4.76527,0,0,0,3.89007-4.64475,3.28178,3.28178,0,0,0-1.25946-2.79574,8.26309,8.26309,0,0,0-3.43456-1.29537L9.982,310.41085A19.96061,19.96061,0,0,1,4.551,308.70032,5.67308,5.67308,0,0,1,1.188,303.38989,6.20076,6.20076,0,0,1,3.5372,298.562a10.25821,10.25821,0,0,1,6.62338-2.0232,10.528,10.528,0,0,1,6.61889,1.85365,7.14385,7.14385,0,0,1,1.99642,2.20175,9.63205,9.63205,0,0,1,1.15676,3.5282Z"/><polygon class="cls-2" points="95.795 297.166 88.224 321.842 85 321.842 78.484 301.396 72.177 321.842 68.886 321.842 61.28 297.166 64.75 297.166 70.601 317.613 76.871 297.166 80.096 297.166 86.612 317.613 92.396 297.166 95.795 297.166"/><rect class="cls-2" x="138.81984" y="297.16899" width="3.3273" height="24.67124"/><polygon class="cls-2" points="194.92 321.842 191.624 321.842 191.624 300.033 184.196 300.033 184.196 297.166 202.311 297.166 202.311 300.033 194.92 300.033 194.92 321.842"/><polygon class="cls-2" points="261.774 300.243 246.566 318.871 262.122 318.871 262.122 321.841 242.748 321.841 242.748 318.626 258.022 300.171 243.976 300.171 243.976 297.165 261.774 297.165 261.774 300.243"/><polygon class="cls-2" points="309.987 318.975 324.284 318.975 324.284 321.842 306.834 321.842 306.834 297.166 323.864 297.166 323.864 300.069 309.987 300.069 309.987 307.689 322.042 307.689 322.042 310.556 309.987 310.556 309.987 318.975"/><path class="cls-2" d="M378.55747,308.5951c1.858,0,4.06426.03571,5.32828-1.67483a4.16686,4.16686,0,0,0,.76817-2.55476,4.21,4.21,0,0,0-1.96078-3.77408,8.22848,8.22848,0,0,0-4.30987-.69648h-6.41335v8.70015Zm-6.58754,13.2465h-3.22467V297.166h9.21822c.76817,0,1.57656-.03135,2.34473,0,3.43456.14284,5.04683,1.22368,6.09646,2.48307a7.114,7.114,0,0,1,1.5095,4.71644c0,1.01378-.13848,4.37243-3.29609,5.97583a7.71623,7.71623,0,0,1-2.52328.80824l6.94041,10.692h-3.92578l-6.76186-10.48647h-6.37764Z"/><polygon class="cls-2" points="447.831 318.906 447.831 321.841 432.552 321.841 432.552 297.169 435.848 297.169 435.848 318.906 447.831 318.906"/><path class="cls-2" d="M499.19889,301.22357l-3.7873,10.30792h7.39606Zm-4.83679,13.06795-2.76916,7.54789h-3.50149l9.42376-24.67124h3.43443l9.004,24.67124h-3.46578l-2.6976-7.54789Z"/><polygon class="cls-2" points="571.764 321.842 568.785 321.842 555.226 301.78 555.538 321.842 552.421 321.842 552.421 297.166 555.538 297.166 568.928 316.951 568.785 297.166 571.764 297.166 571.764 321.842"/><path class="cls-2" d="M621.41127,318.975h5.85521a7.44021,7.44021,0,0,0,5.56926-2.30479c1.121-1.25939,2.13933-3.42543,2.13933-7.1638,0-2.27317-.4198-5.0332-1.92943-6.88685a6.30853,6.30853,0,0,0-1.22368-1.15226,6.0323,6.0323,0,0,0-2.10362-1.01378,14.21234,14.21234,0,0,0-4.417-.38409h-3.89007Zm6.41349-21.80871a10.067,10.067,0,0,1,6.65909,2.30915c1.88909,1.60777,3.85423,4.50627,3.85423,10.06231a19.16868,19.16868,0,0,1-.4198,4.22959,9.96291,9.96291,0,0,1-7.1146,7.61931,13.13642,13.13642,0,0,1-4.13568.4198c-.804,0-1.6124,0-2.38057.03571h-6.27051V297.16626Z"/></svg>